<svg width="13" height="10" viewBox="0 0 13 10" fill="none" xmlns="http://www.w3.org/2000/svg">
<path d="M12.6996 2.30562C12.9772 3.24154 12.9772 5.19531 12.9772 5.19531C12.9772 5.19531 12.9772 7.14908 12.6996 8.085C12.5454 8.60233 12.0941 9.00936 11.5227 9.14697C10.4848 9.39697 6.90411 9.39697 6.90411 9.39697C6.90411 9.39697 3.32526 9.39697 2.28555 9.14697C1.71165 9.00726 1.26103 8.60075 1.10859 8.085C0.831055 7.14908 0.831055 5.19531 0.831055 5.19531C0.831055 5.19531 0.831055 3.24154 1.10859 2.30562C1.26285 1.78829 1.71408 1.38126 2.28555 1.24365C3.32526 0.993652 6.90411 0.993652 6.90411 0.993652C6.90411 0.993652 10.4848 0.993652 11.5227 1.24365C12.0966 1.38336 12.5472 1.78987 12.6996 2.30562ZM5.6895 7.03353L9.33334 5.19531L5.6895 3.35708V7.03353Z" fill="#2B2B2B"/>
</svg>
